<?xml version="1.0" standalone="no"?><!DOCTYPE svg PUBLIC "-//W3C//DTD SVG 1.1//EN" "http://www.w3.org/Graphics/SVG/1.1/DTD/svg11.dtd"><svg t="1542122198999" class="icon" style="" viewBox="0 0 1024 1024" version="1.1" xmlns="http://www.w3.org/2000/svg" p-id="665" xmlns:xlink="http://www.w3.org/1999/xlink" width="200" height="200"><defs><style type="text/css"></style></defs><path d="M114.1 499.1v-1.2c8-214.1 183.7-383.6 397.9-383.9 83.7 0 165.2 26.7 232.7 76.1L683.3 250c-6.6 8-10.2 18-10.2 28.3 0.1 24.1 19.6 43.7 43.7 43.8h204.8c24.1-0.1 43.6-19.7 43.7-43.8V73.5c0-24.1-19.6-43.7-43.7-43.8-17.9 0.1-34 10.8-41 27.3l-53.9 52.7C605.7-64.7 285.2-27 110.8 193.9c-62.2 78.7-99.7 173.9-108 273.8-1.6 4.9-2.5 10-2.7 15.1 0.1 1.8 0.6 3.7 1.4 5.3-0.8 3.4-1.3 7-1.4 10.5 0 31.5 25.5 57 57 57s57-25.5 57-57v0.5z m909.8 7.3c0-2.1-0.7-4.2-0.7-6.2V498c-4.3-28-28.4-48.6-56.6-48.6-28.1 0.1-52 20.7-56 48.6h-0.7v8.5c-0.1 2.3 0.1 4.6 0.7 6.8C910 733 731.7 910.8 512 910.8c-83.7-0.1-165.3-26.8-232.7-76.4l56.6-56.6c9.4-7.8 14.9-19.3 15-31.5 0-24.1-19.5-43.7-43.7-43.9h-36.9l-0.7-1.1-1.4 1.1H102.5c-24-0.1-43.6 19.3-43.7 43.3V951c-0.2 24 19.1 43.7 43.1 43.9h0.6c3-0.2 6-0.8 8.9-1.8v1.8l2.7-2.3c11-3.1 20.4-10.5 25.9-20.5l58-57.8c89.3 70.9 199.9 109.6 314 109.7 282.7 0 511.9-229.2 511.9-511.9V506v0.4z" fill="#1BC840" p-id="666"></path></svg>