<?xml version="1.0" standalone="no"?><!DOCTYPE svg PUBLIC "-//W3C//DTD SVG 1.1//EN" "http://www.w3.org/Graphics/SVG/1.1/DTD/svg11.dtd"><svg t="1542122236496" class="icon" style="" viewBox="0 0 1024 1024" version="1.1" xmlns="http://www.w3.org/2000/svg" p-id="665" xmlns:xlink="http://www.w3.org/1999/xlink" width="200" height="200"><defs><style type="text/css"></style></defs><path d="M820.1216 641.7408a178.3296 178.3296 0 0 0-159.3856 98.048L381.1328 548.864c0.7168-6.8096 1.0752-13.6704 1.0752-20.6336 0-11.9808-1.1264-23.808-3.3792-35.2256l288.3584-197.0176a178.432 178.432 0 0 0 331.1616-92.0064 178.3808 178.3808 0 1 0-354.2016 29.3376L353.792 431.616a178.2784 178.2784 0 1 0 6.8608 181.76l281.6 192.3584a178.432 178.432 0 0 0 177.8176 192.6656 178.3808 178.3808 0 0 0 0.0512-356.6592z" fill="#2DB7F5" p-id="666"></path></svg>